<svg width="200" height="200" viewBox="0 0 200 200" fill="none" xmlns="http://www.w3.org/2000/svg">
<g clip-path="url(#clip0_1107_8)">
<path fill-rule="evenodd" clip-rule="evenodd" d="M45.0185 16.6964L57.1945 7.4863C60.0606 7.35606 62.9621 6.35961 65.8579 5.36508C68.0038 4.62813 70.1465 3.89224 72.2695 3.51062C87.0147 0.859899 105.596 -1.06352 120.394 2.25984C129.006 4.19391 137.412 6.48107 144.912 11.2963C146.497 12.314 148.305 13.8585 150.203 15.4799C153.772 18.5279 157.659 21.848 160.981 22.4527L167.939 27.6334L181.273 42.0242C182.34 46.4445 187.65 55.1798 191.131 58.1419C191.553 60.4516 192.696 62.6556 193.842 64.8649C194.758 66.6312 195.676 68.4007 196.229 70.2303C199.163 79.9556 200.648 93.5341 199.729 103.617C199.039 111.19 196.493 119.023 193.712 126.089C193.231 127.31 192.622 128.591 191.999 129.903C190.538 132.978 188.993 136.229 188.811 139.307L179.484 154.784L162.14 173.269C158.47 173.133 154.26 177.031 150.46 180.549C148.38 182.475 146.423 184.287 144.746 185.261C144.257 185.544 143.539 185.811 142.774 186.094C140.99 186.756 138.948 187.513 138.948 188.811L133.729 192.265L121.553 197.444L91.2381 199.562L67.0513 194.369L56.0348 189.962L54.2955 188.811C50.8931 184.881 41.8731 177.269 36.9011 176.147L27.2097 167.872L17.1876 157.727L13.3983 151.394L7.91063 140.458C7.9353 137.641 6.77303 134.802 5.61743 131.98C4.82799 130.052 4.04168 128.132 3.639 126.231C1.74152 117.273 0.582481 107.024 0.404421 97.8606C0.197719 87.2206 2.8151 76.3612 5.68087 66.2031C6.058 64.8662 6.64732 63.5496 7.23551 62.2354C8.01387 60.4964 8.79024 58.7619 9.07027 56.9907L11.9693 51.81L24.989 32.8653L35.7415 24.1796L38.0608 22.4527L40.9599 20.1502L45.0185 16.6964ZM84.5139 9.19835C87.9613 8.97854 91.4187 8.7581 94.8822 8.30663C146.116 1.62814 193.253 49.2419 193.253 99.0123C193.253 108.476 190.023 117.344 186.737 126.067C178.41 148.18 166.317 162.853 146.486 175.956C145.148 176.839 143.789 177.761 142.408 178.698C133.926 184.449 124.63 190.753 114.596 192.099C97.4774 194.395 78.1812 193.604 62.4128 185.777C56.1159 182.652 50.6128 178.188 45.1586 173.764C43.76 172.63 42.3646 171.498 40.9599 170.392C40.524 170.049 40.089 169.708 39.6553 169.367C32.7511 163.947 26.1485 158.763 21.0991 151.395C-1.73072 118.081 2.09034 66.7797 29.4176 37.4201C32.0937 34.545 35.3012 32.2681 38.507 29.9924C40.1208 28.8468 41.7341 27.7015 43.2791 26.4804C44.6597 25.3892 46.0244 24.2518 47.3939 23.1104C52.6946 18.6924 58.0689 14.2133 64.732 12.1082C71.2697 10.0428 77.8732 9.62176 84.5139 9.19835Z" fill="#FDE884"/>
<path d="M100.68 90.3379C107.936 90.3379 111.565 93.6261 111.565 100.203C111.565 106.779 107.936 110.068 100.68 110.068C93.4241 110.068 89.7959 106.779 89.7959 100.203C89.7959 93.6261 93.4241 90.3379 100.68 90.3379Z" fill="#FDE884" stroke="#FDE884" stroke-width="2"/>
</g>
<defs>
<clipPath id="clip0_1107_8">
<rect width="200" height="200" fill="white"/>
</clipPath>
</defs>
</svg>